<svg xmlns="http://www.w3.org/2000/svg" width="933.333" height="933.333" version="1.0" viewBox="0 0 700 700"><path d="M137.7 99.6c-.1.1-3.1.4-6.7.7-28.8 2.5-48.2 16.5-56.4 40.7-4.7 14.1-4.8 15.4-5.1 94.1-.1 37.1-.5 68.5-.9 69.9-.4 1.4-.8 3-1 3.7-.1.6-1.3 3.2-2.6 5.8-4 7.8-8.5 9.8-23.9 11-10.8.9-17.8 5.1-22.2 13.6-1.8 3.5-2.3 6.1-2.3 12.4-.1 9.6 1.5 14.4 6.3 19.8 4.5 5 9.9 7.5 18.2 8.2 14 1.3 21 4.6 24.4 11.8 3.9 8.5 4.2 12.9 4.2 80.8 0 36 .4 68.7.7 72.5 2.8 27.9 16.7 47.7 39.2 55.4 5.8 2 10.3 3.2 17.4 4.5 1.9.4 16.6.8 32.7.9 24.1.2 30.1-.1 34.3-1.3 10.2-3.2 15.7-10.5 16.4-22.1.8-11.8-3.8-20.4-12.9-24.6-4.6-2.1-7-2.5-19.1-2.7-14.7-.4-18.7-1.4-23.3-5.7-3.7-3.6-7.2-12.2-7.7-19.2-.3-3.5-.6-34.9-.8-69.8-.2-57.4-.4-64.1-2-69.8-2.5-8.7-5.8-14.3-12.5-21-8.5-8.6-17.8-12.5-36.8-15.3-4.6-.7-8.3-1.5-8.3-1.9 0-.3 3.5-1.1 7.8-1.7 10.5-1.5 11.9-1.9 19.8-4.9 14.5-5.4 21.1-10.5 26.3-20.4 5.4-10.4 5.8-15.5 5.9-85.7.1-35.1.4-65.3.6-67 .7-4.8 4.3-12.4 7.4-15.7 4.5-4.8 8.5-5.9 22.2-6.2 14.4-.3 16.6-.6 20.9-2.9 5-2.5 7.1-4.6 9.9-10 2.1-4.2 2.6-6.3 2.5-13 0-8.9-1.8-13.8-7-18.7-6-5.7-8.3-6.1-38.1-6.2-15-.1-27.4-.1-27.5 0zM509 101c-11.1 3.4-16.4 11.2-16.2 23.8.1 8.9 2.4 14.4 8 19.4 5.3 4.8 9.5 5.8 25 6.2 13.8.3 17.6 1.4 22.5 6.1 3.3 3.2 6.3 9.6 7.3 15.7.4 2.4.8 33.8.9 69.8.2 57.5.4 66.2 1.9 71.5 6.2 22.2 22.2 33.9 51.1 37.1 8.4.9 8.4 1.6 0 2.9-15.6 2.5-24.2 5-30.8 9.2-5.7 3.6-13.8 12.2-16.4 17.4-5.6 11.1-5.5 11-5.8 82.9-.2 72.9-.4 74.7-6.3 83.1-4.7 6.7-9.4 8.3-25.7 8.6-12.1.3-14.6.7-19.1 2.7-9 4.1-13.4 12.8-12.7 25 .4 7 4 14.4 8.7 17.9 6.4 4.9 9.9 5.3 41.1 5.2 36.3-.2 42.9-1.2 57.5-8.3 13.4-6.5 25.7-21.4 29.5-35.7.5-1.7.9-3.2 1-3.5.1-.3.5-2.5.9-5s1-5.9 1.3-7.5c.3-1.7.6-34.5.8-73 .2-68.7.3-70.1 2.4-76.7 3.6-11.2 9.7-15 26-16.3 11.2-.9 17.3-4.8 22.1-14.3 2.7-5.2 3.8-16.3 2.1-21.4-3.8-11.4-11.9-17.5-24.7-18.3-8.4-.6-9.9-.9-14.4-2.8-6.7-2.9-10.2-7.8-12.2-17-.7-3.4-1.1-28.8-1.3-74.7-.2-45.3-.7-71.8-1.4-76.2-5.1-30.4-22.4-48.2-52.3-53.4-13.3-2.4-63.6-2.7-70.8-.4z"/><path d="M250.9 208.5c-14.9 5.3-27 18.9-29.7 33.7-.5 2.5-.8 7.8-.7 11.8.2 5.9.9 8.4 3.9 14.3 3.7 7.4 4.7 8.7 16.3 21.1 3.7 4 11.1 11.9 16.3 17.5 5.2 5.7 11.1 12 13 14.1 15.1 16.2 22.3 24.1 25.3 27.4l3.5 4-4.7 4.9c-2.5 2.8-5.7 6.2-7.1 7.7-16.1 17.2-25.8 27.7-27.3 29.4-1 1.1-4.6 5-8 8.6-32.1 34.2-39.1 42.7-42.1 52.1-3.9 11.8-1.9 29 4.3 38.8 8.2 12.8 21.1 19.5 37.6 19.5 10.8 0 15.1-1.3 23-6.9 9.1-6.5 9.8-7.4 54.5-60.5 5.2-6.2 10.5-12.4 11.7-13.8 1.2-1.3 3.7-4.4 5.5-6.8 4-5.3 5.6-6 7.7-3.5.9 1.1 4.4 5.2 7.8 9.3 53.8 64.1 59.4 70.3 68.7 76.7 6.1 4.2 13.4 6 23.1 5.5 29.2-1.3 47.3-25.5 40.9-54.9-1.9-8.6-8.9-18.9-23.9-35-5.5-5.9-11.1-11.9-12.4-13.4-9.6-10.4-21.2-22.9-24.1-26-1.9-2-8.2-8.8-14-15.1-5.8-6.2-11.5-12.3-12.7-13.6-1.3-1.3-2.3-2.7-2.3-3.1 0-.9 3.2-4.5 16.9-19.2 11.5-12.4 14.9-16 20.9-22.6 2.5-2.8 7.8-8.4 11.7-12.5 25.9-27.5 29.7-34.3 28.1-50.5-1.6-17-10.4-29.7-25.3-36.8-6.5-3.1-7.3-3.2-18.8-3.1-13.4 0-18.7 1.4-26.1 6.5-6.3 4.3-8 6.2-35.6 40.7-20.2 25.2-25.3 31.1-26.3 30-.7-.7-6.6-8.1-13.1-16.3-6.5-8.3-12.1-15.2-12.4-15.5-.3-.3-5.9-7.3-12.4-15.5-17.5-22.1-21.8-25.7-34.5-29-7.3-1.9-21.8-1.9-27.2 0z"/></svg>