<?xml version="1.0" standalone="no"?>
<!DOCTYPE svg PUBLIC "-//W3C//DTD SVG 20010904//EN"
 "http://www.w3.org/TR/2001/REC-SVG-20010904/DTD/svg10.dtd">
<svg version="1.0" xmlns="http://www.w3.org/2000/svg"
 width="700.000000pt" height="700.000000pt" viewBox="0 0 700.000000 700.000000"
 preserveAspectRatio="xMidYMid meet">
<metadata>
Created by potrace 1.11, written by Peter Selinger 2001-2013
</metadata>
<g transform="translate(0.000000,700.000000) scale(0.100000,-0.100000)"
fill="#000000" stroke="none">
<path d="M1377 6004 c-1 -1 -31 -4 -67 -7 -288 -25 -482 -165 -564 -407 -47
-141 -48 -154 -51 -941 -1 -371 -5 -685 -9 -699 -4 -14 -8 -30 -10 -37 -1 -6
-13 -32 -26 -58 -40 -78 -85 -98 -239 -110 -108 -9 -178 -51 -222 -136 -18
-35 -23 -61 -23 -124 -1 -96 15 -144 63 -198 45 -50 99 -75 182 -82 140 -13
210 -46 244 -118 39 -85 42 -129 42 -808 0 -360 4 -687 7 -725 28 -279 167
-477 392 -554 58 -20 103 -32 174 -45 19 -4 166 -8 327 -9 241 -2 301 1 343
13 102 32 157 105 164 221 8 118 -38 204 -129 246 -46 21 -70 25 -191 27 -147
4 -187 14 -233 57 -37 36 -72 122 -77 192 -3 35 -6 349 -8 698 -2 574 -4 641
-20 698 -25 87 -58 143 -125 210 -85 86 -178 125 -368 153 -46 7 -83 15 -83
19 0 3 35 11 78 17 105 15 119 19 198 49 145 54 211 105 263 204 54 104 58
155 59 857 1 351 4 653 6 670 7 48 43 124 74 157 45 48 85 59 222 62 144 3
166 6 209 29 50 25 71 46 99 100 21 42 26 63 25 130 0 89 -18 138 -70 187 -60
57 -83 61 -381 62 -150 1 -274 1 -275 0z"/>
<path d="M5090 5990 c-111 -34 -164 -112 -162 -238 1 -89 24 -144 80 -194 53
-48 95 -58 250 -62 138 -3 176 -14 225 -61 33 -32 63 -96 73 -157 4 -24 8
-338 9 -698 2 -575 4 -662 19 -715 62 -222 222 -339 511 -371 84 -9 84 -16 0
-29 -156 -25 -242 -50 -308 -92 -57 -36 -138 -122 -164 -174 -56 -111 -55
-110 -58 -829 -2 -729 -4 -747 -63 -831 -47 -67 -94 -83 -257 -86 -121 -3
-146 -7 -191 -27 -90 -41 -134 -128 -127 -250 4 -70 40 -144 87 -179 64 -49
99 -53 411 -52 363 2 429 12 575 83 134 65 257 214 295 357 5 17 9 32 10 35 1
3 5 25 9 50 4 25 10 59 13 75 3 17 6 345 8 730 2 687 3 701 24 767 36 112 97
150 260 163 112 9 173 48 221 143 27 52 38 163 21 214 -38 114 -119 175 -247
183 -84 6 -99 9 -144 28 -67 29 -102 78 -122 170 -7 34 -11 288 -13 747 -2
453 -7 718 -14 762 -51 304 -224 482 -523 534 -133 24 -636 27 -708 4z"/>
<path d="M2509 4915 c-149 -53 -270 -189 -297 -337 -5 -25 -8 -78 -7 -118 2
-59 9 -84 39 -143 37 -74 47 -87 163 -211 37 -40 111 -119 163 -175 52 -57
111 -120 130 -141 151 -162 223 -241 253 -274 l35 -40 -47 -49 c-25 -28 -57
-62 -71 -77 -161 -172 -258 -277 -273 -294 -10 -11 -46 -50 -80 -86 -321 -342
-391 -427 -421 -521 -39 -118 -19 -290 43 -388 82 -128 211 -195 376 -195 108
0 151 13 230 69 91 65 98 74 545 605 52 62 105 124 117 138 12 13 37 44 55 68
40 53 56 60 77 35 9 -11 44 -52 78 -93 538 -641 594 -703 687 -767 61 -42 134
-60 231 -55 292 13 473 255 409 549 -19 86 -89 189 -239 350 -55 59 -111 119
-124 134 -96 104 -212 229 -241 260 -19 20 -82 88 -140 151 -58 62 -115 123
-127 136 -13 13 -23 27 -23 31 0 9 32 45 169 192 115 124 149 160 209 226 25
28 78 84 117 125 259 275 297 343 281 505 -16 170 -104 297 -253 368 -65 31
-73 32 -188 31 -134 0 -187 -14 -261 -65 -63 -43 -80 -62 -356 -407 -202 -252
-253 -311 -263 -300 -7 7 -66 81 -131 163 -65 83 -121 152 -124 155 -3 3 -59
73 -124 155 -175 221 -218 257 -345 290 -73 19 -218 19 -272 0z"/>
</g>
</svg>
